%TF.GenerationSoftware,KiCad,Pcbnew,9.0.6*%
%TF.CreationDate,2025-12-18T11:45:50-05:00*%
%TF.ProjectId,seal_project,7365616c-5f70-4726-9f6a-6563742e6b69,rev?*%
%TF.SameCoordinates,Original*%
%TF.FileFunction,Legend,Bot*%
%TF.FilePolarity,Positive*%
%FSLAX46Y46*%
G04 Gerber Fmt 4.6, Leading zero omitted, Abs format (unit mm)*
G04 Created by KiCad (PCBNEW 9.0.6) date 2025-12-18 11:45:50*
%MOMM*%
%LPD*%
G01*
G04 APERTURE LIST*
%ADD10C,0.150000*%
%ADD11C,0.300000*%
%ADD12C,0.120000*%
G04 APERTURE END LIST*
D10*
X164122494Y-92983264D02*
X164122494Y-91554692D01*
X164503446Y-91554692D02*
X165360589Y-92840407D01*
X165265352Y-92745169D02*
X166027256Y-92745169D01*
X166027257Y-92745169D02*
X166789161Y-92745169D01*
X167741542Y-91602312D02*
X166884400Y-92888026D01*
X168122495Y-92602312D02*
X168122495Y-92649931D01*
X168122495Y-92649931D02*
X168074876Y-92745169D01*
X168074876Y-92745169D02*
X168027257Y-92792788D01*
X168789161Y-92983264D02*
X168789161Y-91554692D01*
X171312971Y-93030883D02*
X171265352Y-92983264D01*
X171265352Y-92983264D02*
X171170114Y-92840407D01*
X171170114Y-92840407D02*
X171122495Y-92745169D01*
X171122495Y-92745169D02*
X171074876Y-92602312D01*
X171074876Y-92602312D02*
X171027257Y-92364216D01*
X171027257Y-92364216D02*
X171027257Y-92173740D01*
X171027257Y-92173740D02*
X171074876Y-91935645D01*
X171074876Y-91935645D02*
X171122495Y-91792788D01*
X171122495Y-91792788D02*
X171170114Y-91697550D01*
X171170114Y-91697550D02*
X171265352Y-91554692D01*
X171265352Y-91554692D02*
X171312971Y-91507073D01*
X171551067Y-91602312D02*
X171693924Y-91745169D01*
X171741542Y-91554692D02*
X172598685Y-92840407D01*
X162122494Y-94355113D02*
X162884398Y-94355113D01*
X163122494Y-94164636D02*
X163170113Y-94212256D01*
X163170113Y-94212256D02*
X163122494Y-94259875D01*
X163122494Y-94259875D02*
X163074875Y-94212256D01*
X163074875Y-94212256D02*
X163122494Y-94164636D01*
X163122494Y-94164636D02*
X163122494Y-94259875D01*
X163836779Y-94593208D02*
X163836779Y-93164636D01*
X164693922Y-94259875D02*
X164598684Y-94212256D01*
X164598684Y-94212256D02*
X164551065Y-94164636D01*
X164551065Y-94164636D02*
X164503446Y-94069398D01*
X164503446Y-94069398D02*
X164503446Y-93783684D01*
X164503446Y-93783684D02*
X164551065Y-93688446D01*
X164551065Y-93688446D02*
X164598684Y-93640827D01*
X164598684Y-93640827D02*
X164693922Y-93593208D01*
X164693922Y-93593208D02*
X164836779Y-93593208D01*
X164836779Y-93593208D02*
X164932017Y-93640827D01*
X164932017Y-93640827D02*
X164979636Y-93688446D01*
X164979636Y-93688446D02*
X165027255Y-93783684D01*
X165027255Y-93783684D02*
X165027255Y-94069398D01*
X165027255Y-94069398D02*
X164979636Y-94164636D01*
X164979636Y-94164636D02*
X164932017Y-94212256D01*
X164932017Y-94212256D02*
X164836779Y-94259875D01*
X164836779Y-94259875D02*
X164693922Y-94259875D01*
X166360589Y-94259875D02*
X166265351Y-94212256D01*
X166265351Y-94212256D02*
X166217732Y-94164636D01*
X166217732Y-94164636D02*
X166170113Y-94069398D01*
X166170113Y-94069398D02*
X166170113Y-93783684D01*
X166170113Y-93783684D02*
X166217732Y-93688446D01*
X166217732Y-93688446D02*
X166265351Y-93640827D01*
X166265351Y-93640827D02*
X166360589Y-93593208D01*
X166360589Y-93593208D02*
X166503446Y-93593208D01*
X166503446Y-93593208D02*
X166598684Y-93640827D01*
X166598684Y-93640827D02*
X166646303Y-93688446D01*
X166646303Y-93688446D02*
X166693922Y-93783684D01*
X166693922Y-93783684D02*
X166693922Y-94069398D01*
X166693922Y-94069398D02*
X166646303Y-94164636D01*
X166646303Y-94164636D02*
X166598684Y-94212256D01*
X166598684Y-94212256D02*
X166503446Y-94259875D01*
X166503446Y-94259875D02*
X166360589Y-94259875D01*
X168884399Y-94593208D02*
X168884399Y-93164636D01*
X169360590Y-94355113D02*
X170122494Y-94355113D01*
X171789162Y-94640827D02*
X171836781Y-94593208D01*
X171836781Y-94593208D02*
X171932019Y-94450351D01*
X171932019Y-94450351D02*
X171979638Y-94355113D01*
X171979638Y-94355113D02*
X172027257Y-94212256D01*
X172027257Y-94212256D02*
X172074876Y-93974160D01*
X172074876Y-93974160D02*
X172074876Y-93783684D01*
X172074876Y-93783684D02*
X172027257Y-93545589D01*
X172027257Y-93545589D02*
X171979638Y-93402732D01*
X171979638Y-93402732D02*
X171932019Y-93307494D01*
X171932019Y-93307494D02*
X171836781Y-93164636D01*
X171836781Y-93164636D02*
X171789162Y-93117017D01*
X173217734Y-94640827D02*
X173265353Y-94593208D01*
X173265353Y-94593208D02*
X173360591Y-94450351D01*
X173360591Y-94450351D02*
X173408210Y-94355113D01*
X173408210Y-94355113D02*
X173455829Y-94212256D01*
X173455829Y-94212256D02*
X173503448Y-93974160D01*
X173503448Y-93974160D02*
X173503448Y-93783684D01*
X173503448Y-93783684D02*
X173455829Y-93545589D01*
X173455829Y-93545589D02*
X173408210Y-93402732D01*
X173408210Y-93402732D02*
X173360591Y-93307494D01*
X173360591Y-93307494D02*
X173265353Y-93164636D01*
X173265353Y-93164636D02*
X173217734Y-93117017D01*
X160836779Y-95488866D02*
X161598684Y-95488866D01*
X162360588Y-96250771D02*
X162312969Y-96203152D01*
X162312969Y-96203152D02*
X162217731Y-96060295D01*
X162217731Y-96060295D02*
X162170112Y-95965057D01*
X162170112Y-95965057D02*
X162122493Y-95822200D01*
X162122493Y-95822200D02*
X162074874Y-95584104D01*
X162074874Y-95584104D02*
X162074874Y-95393628D01*
X162074874Y-95393628D02*
X162122493Y-95155533D01*
X162122493Y-95155533D02*
X162170112Y-95012676D01*
X162170112Y-95012676D02*
X162217731Y-94917438D01*
X162217731Y-94917438D02*
X162312969Y-94774580D01*
X162312969Y-94774580D02*
X162360588Y-94726961D01*
X163027255Y-96250771D02*
X162979636Y-96203152D01*
X162979636Y-96203152D02*
X162884398Y-96060295D01*
X162884398Y-96060295D02*
X162836779Y-95965057D01*
X162836779Y-95965057D02*
X162789160Y-95822200D01*
X162789160Y-95822200D02*
X162741541Y-95584104D01*
X162741541Y-95584104D02*
X162741541Y-95393628D01*
X162741541Y-95393628D02*
X162789160Y-95155533D01*
X162789160Y-95155533D02*
X162836779Y-95012676D01*
X162836779Y-95012676D02*
X162884398Y-94917438D01*
X162884398Y-94917438D02*
X162979636Y-94774580D01*
X162979636Y-94774580D02*
X163027255Y-94726961D01*
X163693922Y-96250771D02*
X163646303Y-96203152D01*
X163646303Y-96203152D02*
X163551065Y-96060295D01*
X163551065Y-96060295D02*
X163503446Y-95965057D01*
X163503446Y-95965057D02*
X163455827Y-95822200D01*
X163455827Y-95822200D02*
X163408208Y-95584104D01*
X163408208Y-95584104D02*
X163408208Y-95393628D01*
X163408208Y-95393628D02*
X163455827Y-95155533D01*
X163455827Y-95155533D02*
X163503446Y-95012676D01*
X163503446Y-95012676D02*
X163551065Y-94917438D01*
X163551065Y-94917438D02*
X163646303Y-94774580D01*
X163646303Y-94774580D02*
X163693922Y-94726961D01*
X164074875Y-95488866D02*
X164836780Y-95488866D01*
X165312970Y-95488866D02*
X166074875Y-95488866D01*
X166551065Y-95488866D02*
X167312970Y-95488866D01*
X168074874Y-96250771D02*
X168027255Y-96203152D01*
X168027255Y-96203152D02*
X167932017Y-96060295D01*
X167932017Y-96060295D02*
X167884398Y-95965057D01*
X167884398Y-95965057D02*
X167836779Y-95822200D01*
X167836779Y-95822200D02*
X167789160Y-95584104D01*
X167789160Y-95584104D02*
X167789160Y-95393628D01*
X167789160Y-95393628D02*
X167836779Y-95155533D01*
X167836779Y-95155533D02*
X167884398Y-95012676D01*
X167884398Y-95012676D02*
X167932017Y-94917438D01*
X167932017Y-94917438D02*
X168027255Y-94774580D01*
X168027255Y-94774580D02*
X168074874Y-94726961D01*
X168741541Y-96250771D02*
X168693922Y-96203152D01*
X168693922Y-96203152D02*
X168598684Y-96060295D01*
X168598684Y-96060295D02*
X168551065Y-95965057D01*
X168551065Y-95965057D02*
X168503446Y-95822200D01*
X168503446Y-95822200D02*
X168455827Y-95584104D01*
X168455827Y-95584104D02*
X168455827Y-95393628D01*
X168455827Y-95393628D02*
X168503446Y-95155533D01*
X168503446Y-95155533D02*
X168551065Y-95012676D01*
X168551065Y-95012676D02*
X168598684Y-94917438D01*
X168598684Y-94917438D02*
X168693922Y-94774580D01*
X168693922Y-94774580D02*
X168741541Y-94726961D01*
X169408208Y-96250771D02*
X169360589Y-96203152D01*
X169360589Y-96203152D02*
X169265351Y-96060295D01*
X169265351Y-96060295D02*
X169217732Y-95965057D01*
X169217732Y-95965057D02*
X169170113Y-95822200D01*
X169170113Y-95822200D02*
X169122494Y-95584104D01*
X169122494Y-95584104D02*
X169122494Y-95393628D01*
X169122494Y-95393628D02*
X169170113Y-95155533D01*
X169170113Y-95155533D02*
X169217732Y-95012676D01*
X169217732Y-95012676D02*
X169265351Y-94917438D01*
X169265351Y-94917438D02*
X169360589Y-94774580D01*
X169360589Y-94774580D02*
X169408208Y-94726961D01*
X169789161Y-95488866D02*
X170551066Y-95488866D01*
X171027256Y-95488866D02*
X171789161Y-95488866D01*
X172265351Y-95488866D02*
X173027256Y-95488866D01*
X173503446Y-95488866D02*
X174265351Y-95488866D01*
X174741541Y-95488866D02*
X175503446Y-95488866D01*
D11*
X178659774Y-81885912D02*
X177802632Y-81885912D01*
X178231203Y-83385912D02*
X178231203Y-81885912D01*
X177088346Y-83385912D02*
X177231203Y-83314484D01*
X177231203Y-83314484D02*
X177302632Y-83243055D01*
X177302632Y-83243055D02*
X177374060Y-83100198D01*
X177374060Y-83100198D02*
X177374060Y-82671626D01*
X177374060Y-82671626D02*
X177302632Y-82528769D01*
X177302632Y-82528769D02*
X177231203Y-82457341D01*
X177231203Y-82457341D02*
X177088346Y-82385912D01*
X177088346Y-82385912D02*
X176874060Y-82385912D01*
X176874060Y-82385912D02*
X176731203Y-82457341D01*
X176731203Y-82457341D02*
X176659775Y-82528769D01*
X176659775Y-82528769D02*
X176588346Y-82671626D01*
X176588346Y-82671626D02*
X176588346Y-83100198D01*
X176588346Y-83100198D02*
X176659775Y-83243055D01*
X176659775Y-83243055D02*
X176731203Y-83314484D01*
X176731203Y-83314484D02*
X176874060Y-83385912D01*
X176874060Y-83385912D02*
X177088346Y-83385912D01*
X175945489Y-83243055D02*
X175874060Y-83314484D01*
X175874060Y-83314484D02*
X175945489Y-83385912D01*
X175945489Y-83385912D02*
X176016917Y-83314484D01*
X176016917Y-83314484D02*
X175945489Y-83243055D01*
X175945489Y-83243055D02*
X175945489Y-83385912D01*
X175945489Y-82457341D02*
X175874060Y-82528769D01*
X175874060Y-82528769D02*
X175945489Y-82600198D01*
X175945489Y-82600198D02*
X176016917Y-82528769D01*
X176016917Y-82528769D02*
X175945489Y-82457341D01*
X175945489Y-82457341D02*
X175945489Y-82600198D01*
X174088346Y-82600198D02*
X173588346Y-82600198D01*
X173374060Y-83385912D02*
X174088346Y-83385912D01*
X174088346Y-83385912D02*
X174088346Y-81885912D01*
X174088346Y-81885912D02*
X173374060Y-81885912D01*
X172874060Y-82385912D02*
X172088346Y-82385912D01*
X172088346Y-82385912D02*
X172874060Y-83385912D01*
X172874060Y-83385912D02*
X172088346Y-83385912D01*
X171659774Y-82385912D02*
X170874060Y-82385912D01*
X170874060Y-82385912D02*
X171659774Y-83385912D01*
X171659774Y-83385912D02*
X170874060Y-83385912D01*
X169659774Y-83385912D02*
X169659774Y-82600198D01*
X169659774Y-82600198D02*
X169731202Y-82457341D01*
X169731202Y-82457341D02*
X169874059Y-82385912D01*
X169874059Y-82385912D02*
X170159774Y-82385912D01*
X170159774Y-82385912D02*
X170302631Y-82457341D01*
X169659774Y-83314484D02*
X169802631Y-83385912D01*
X169802631Y-83385912D02*
X170159774Y-83385912D01*
X170159774Y-83385912D02*
X170302631Y-83314484D01*
X170302631Y-83314484D02*
X170374059Y-83171626D01*
X170374059Y-83171626D02*
X170374059Y-83028769D01*
X170374059Y-83028769D02*
X170302631Y-82885912D01*
X170302631Y-82885912D02*
X170159774Y-82814484D01*
X170159774Y-82814484D02*
X169802631Y-82814484D01*
X169802631Y-82814484D02*
X169659774Y-82743055D01*
X169159773Y-82385912D02*
X168588345Y-82385912D01*
X168945488Y-81885912D02*
X168945488Y-83171626D01*
X168945488Y-83171626D02*
X168874059Y-83314484D01*
X168874059Y-83314484D02*
X168731202Y-83385912D01*
X168731202Y-83385912D02*
X168588345Y-83385912D01*
X177945489Y-85015114D02*
X178445489Y-85015114D01*
X178445489Y-85800828D02*
X178445489Y-84300828D01*
X178445489Y-84300828D02*
X177731203Y-84300828D01*
X177159775Y-85800828D02*
X177159775Y-84800828D01*
X177159775Y-85086542D02*
X177088346Y-84943685D01*
X177088346Y-84943685D02*
X177016918Y-84872257D01*
X177016918Y-84872257D02*
X176874060Y-84800828D01*
X176874060Y-84800828D02*
X176731203Y-84800828D01*
X176016918Y-85800828D02*
X176159775Y-85729400D01*
X176159775Y-85729400D02*
X176231204Y-85657971D01*
X176231204Y-85657971D02*
X176302632Y-85515114D01*
X176302632Y-85515114D02*
X176302632Y-85086542D01*
X176302632Y-85086542D02*
X176231204Y-84943685D01*
X176231204Y-84943685D02*
X176159775Y-84872257D01*
X176159775Y-84872257D02*
X176016918Y-84800828D01*
X176016918Y-84800828D02*
X175802632Y-84800828D01*
X175802632Y-84800828D02*
X175659775Y-84872257D01*
X175659775Y-84872257D02*
X175588347Y-84943685D01*
X175588347Y-84943685D02*
X175516918Y-85086542D01*
X175516918Y-85086542D02*
X175516918Y-85515114D01*
X175516918Y-85515114D02*
X175588347Y-85657971D01*
X175588347Y-85657971D02*
X175659775Y-85729400D01*
X175659775Y-85729400D02*
X175802632Y-85800828D01*
X175802632Y-85800828D02*
X176016918Y-85800828D01*
X174874061Y-85800828D02*
X174874061Y-84800828D01*
X174874061Y-84943685D02*
X174802632Y-84872257D01*
X174802632Y-84872257D02*
X174659775Y-84800828D01*
X174659775Y-84800828D02*
X174445489Y-84800828D01*
X174445489Y-84800828D02*
X174302632Y-84872257D01*
X174302632Y-84872257D02*
X174231204Y-85015114D01*
X174231204Y-85015114D02*
X174231204Y-85800828D01*
X174231204Y-85015114D02*
X174159775Y-84872257D01*
X174159775Y-84872257D02*
X174016918Y-84800828D01*
X174016918Y-84800828D02*
X173802632Y-84800828D01*
X173802632Y-84800828D02*
X173659775Y-84872257D01*
X173659775Y-84872257D02*
X173588346Y-85015114D01*
X173588346Y-85015114D02*
X173588346Y-85800828D01*
X172874061Y-85657971D02*
X172802632Y-85729400D01*
X172802632Y-85729400D02*
X172874061Y-85800828D01*
X172874061Y-85800828D02*
X172945489Y-85729400D01*
X172945489Y-85729400D02*
X172874061Y-85657971D01*
X172874061Y-85657971D02*
X172874061Y-85800828D01*
X172874061Y-84872257D02*
X172802632Y-84943685D01*
X172802632Y-84943685D02*
X172874061Y-85015114D01*
X172874061Y-85015114D02*
X172945489Y-84943685D01*
X172945489Y-84943685D02*
X172874061Y-84872257D01*
X172874061Y-84872257D02*
X172874061Y-85015114D01*
X170159775Y-85657971D02*
X170231203Y-85729400D01*
X170231203Y-85729400D02*
X170445489Y-85800828D01*
X170445489Y-85800828D02*
X170588346Y-85800828D01*
X170588346Y-85800828D02*
X170802632Y-85729400D01*
X170802632Y-85729400D02*
X170945489Y-85586542D01*
X170945489Y-85586542D02*
X171016918Y-85443685D01*
X171016918Y-85443685D02*
X171088346Y-85157971D01*
X171088346Y-85157971D02*
X171088346Y-84943685D01*
X171088346Y-84943685D02*
X171016918Y-84657971D01*
X171016918Y-84657971D02*
X170945489Y-84515114D01*
X170945489Y-84515114D02*
X170802632Y-84372257D01*
X170802632Y-84372257D02*
X170588346Y-84300828D01*
X170588346Y-84300828D02*
X170445489Y-84300828D01*
X170445489Y-84300828D02*
X170231203Y-84372257D01*
X170231203Y-84372257D02*
X170159775Y-84443685D01*
X168874061Y-85800828D02*
X168874061Y-85015114D01*
X168874061Y-85015114D02*
X168945489Y-84872257D01*
X168945489Y-84872257D02*
X169088346Y-84800828D01*
X169088346Y-84800828D02*
X169374061Y-84800828D01*
X169374061Y-84800828D02*
X169516918Y-84872257D01*
X168874061Y-85729400D02*
X169016918Y-85800828D01*
X169016918Y-85800828D02*
X169374061Y-85800828D01*
X169374061Y-85800828D02*
X169516918Y-85729400D01*
X169516918Y-85729400D02*
X169588346Y-85586542D01*
X169588346Y-85586542D02*
X169588346Y-85443685D01*
X169588346Y-85443685D02*
X169516918Y-85300828D01*
X169516918Y-85300828D02*
X169374061Y-85229400D01*
X169374061Y-85229400D02*
X169016918Y-85229400D01*
X169016918Y-85229400D02*
X168874061Y-85157971D01*
X167945489Y-85800828D02*
X168088346Y-85729400D01*
X168088346Y-85729400D02*
X168159775Y-85586542D01*
X168159775Y-85586542D02*
X168159775Y-84300828D01*
D10*
X133171191Y-104068216D02*
X133218810Y-104211073D01*
X133218810Y-104211073D02*
X133266429Y-104258692D01*
X133266429Y-104258692D02*
X133361667Y-104306311D01*
X133361667Y-104306311D02*
X133504524Y-104306311D01*
X133504524Y-104306311D02*
X133599762Y-104258692D01*
X133599762Y-104258692D02*
X133647382Y-104211073D01*
X133647382Y-104211073D02*
X133695001Y-104115835D01*
X133695001Y-104115835D02*
X133695001Y-103734883D01*
X133695001Y-103734883D02*
X132695001Y-103734883D01*
X132695001Y-103734883D02*
X132695001Y-104068216D01*
X132695001Y-104068216D02*
X132742620Y-104163454D01*
X132742620Y-104163454D02*
X132790239Y-104211073D01*
X132790239Y-104211073D02*
X132885477Y-104258692D01*
X132885477Y-104258692D02*
X132980715Y-104258692D01*
X132980715Y-104258692D02*
X133075953Y-104211073D01*
X133075953Y-104211073D02*
X133123572Y-104163454D01*
X133123572Y-104163454D02*
X133171191Y-104068216D01*
X133171191Y-104068216D02*
X133171191Y-103734883D01*
X132695001Y-104592026D02*
X132695001Y-105163454D01*
X133695001Y-104877740D02*
X132695001Y-104877740D01*
X133695001Y-106020597D02*
X133695001Y-105449169D01*
X133695001Y-105734883D02*
X132695001Y-105734883D01*
X132695001Y-105734883D02*
X132837858Y-105639645D01*
X132837858Y-105639645D02*
X132933096Y-105544407D01*
X132933096Y-105544407D02*
X132980715Y-105449169D01*
X128854882Y-100282502D02*
X128854882Y-101425360D01*
X129426310Y-100853931D02*
X128283453Y-100853931D01*
X143718347Y-69714735D02*
X143718347Y-68714735D01*
X143718347Y-68714735D02*
X143480252Y-68714735D01*
X143480252Y-68714735D02*
X143337395Y-68762354D01*
X143337395Y-68762354D02*
X143242157Y-68857592D01*
X143242157Y-68857592D02*
X143194538Y-68952830D01*
X143194538Y-68952830D02*
X143146919Y-69143306D01*
X143146919Y-69143306D02*
X143146919Y-69286163D01*
X143146919Y-69286163D02*
X143194538Y-69476639D01*
X143194538Y-69476639D02*
X143242157Y-69571877D01*
X143242157Y-69571877D02*
X143337395Y-69667116D01*
X143337395Y-69667116D02*
X143480252Y-69714735D01*
X143480252Y-69714735D02*
X143718347Y-69714735D01*
X142765966Y-68809973D02*
X142718347Y-68762354D01*
X142718347Y-68762354D02*
X142623109Y-68714735D01*
X142623109Y-68714735D02*
X142385014Y-68714735D01*
X142385014Y-68714735D02*
X142289776Y-68762354D01*
X142289776Y-68762354D02*
X142242157Y-68809973D01*
X142242157Y-68809973D02*
X142194538Y-68905211D01*
X142194538Y-68905211D02*
X142194538Y-69000449D01*
X142194538Y-69000449D02*
X142242157Y-69143306D01*
X142242157Y-69143306D02*
X142813585Y-69714735D01*
X142813585Y-69714735D02*
X142194538Y-69714735D01*
X132056094Y-67446819D02*
X132056094Y-66446819D01*
X132056094Y-66446819D02*
X131817999Y-66446819D01*
X131817999Y-66446819D02*
X131675142Y-66494438D01*
X131675142Y-66494438D02*
X131579904Y-66589676D01*
X131579904Y-66589676D02*
X131532285Y-66684914D01*
X131532285Y-66684914D02*
X131484666Y-66875390D01*
X131484666Y-66875390D02*
X131484666Y-67018247D01*
X131484666Y-67018247D02*
X131532285Y-67208723D01*
X131532285Y-67208723D02*
X131579904Y-67303961D01*
X131579904Y-67303961D02*
X131675142Y-67399200D01*
X131675142Y-67399200D02*
X131817999Y-67446819D01*
X131817999Y-67446819D02*
X132056094Y-67446819D01*
X130532285Y-67446819D02*
X131103713Y-67446819D01*
X130817999Y-67446819D02*
X130817999Y-66446819D01*
X130817999Y-66446819D02*
X130913237Y-66589676D01*
X130913237Y-66589676D02*
X131008475Y-66684914D01*
X131008475Y-66684914D02*
X131103713Y-66732533D01*
X144837610Y-111981631D02*
X144885229Y-112124488D01*
X144885229Y-112124488D02*
X144885229Y-112362583D01*
X144885229Y-112362583D02*
X144837610Y-112457821D01*
X144837610Y-112457821D02*
X144789990Y-112505440D01*
X144789990Y-112505440D02*
X144694752Y-112553059D01*
X144694752Y-112553059D02*
X144599514Y-112553059D01*
X144599514Y-112553059D02*
X144504276Y-112505440D01*
X144504276Y-112505440D02*
X144456657Y-112457821D01*
X144456657Y-112457821D02*
X144409038Y-112362583D01*
X144409038Y-112362583D02*
X144361419Y-112172107D01*
X144361419Y-112172107D02*
X144313800Y-112076869D01*
X144313800Y-112076869D02*
X144266181Y-112029250D01*
X144266181Y-112029250D02*
X144170943Y-111981631D01*
X144170943Y-111981631D02*
X144075705Y-111981631D01*
X144075705Y-111981631D02*
X143980467Y-112029250D01*
X143980467Y-112029250D02*
X143932848Y-112076869D01*
X143932848Y-112076869D02*
X143885229Y-112172107D01*
X143885229Y-112172107D02*
X143885229Y-112410202D01*
X143885229Y-112410202D02*
X143932848Y-112553059D01*
X143885229Y-112886393D02*
X144885229Y-113124488D01*
X144885229Y-113124488D02*
X144170943Y-113314964D01*
X144170943Y-113314964D02*
X144885229Y-113505440D01*
X144885229Y-113505440D02*
X143885229Y-113743536D01*
X144885229Y-114648297D02*
X144885229Y-114076869D01*
X144885229Y-114362583D02*
X143885229Y-114362583D01*
X143885229Y-114362583D02*
X144028086Y-114267345D01*
X144028086Y-114267345D02*
X144123324Y-114172107D01*
X144123324Y-114172107D02*
X144170943Y-114076869D01*
X155824819Y-98833333D02*
X155348628Y-98500000D01*
X155824819Y-98261905D02*
X154824819Y-98261905D01*
X154824819Y-98261905D02*
X154824819Y-98642857D01*
X154824819Y-98642857D02*
X154872438Y-98738095D01*
X154872438Y-98738095D02*
X154920057Y-98785714D01*
X154920057Y-98785714D02*
X155015295Y-98833333D01*
X155015295Y-98833333D02*
X155158152Y-98833333D01*
X155158152Y-98833333D02*
X155253390Y-98785714D01*
X155253390Y-98785714D02*
X155301009Y-98738095D01*
X155301009Y-98738095D02*
X155348628Y-98642857D01*
X155348628Y-98642857D02*
X155348628Y-98261905D01*
X155824819Y-99785714D02*
X155824819Y-99214286D01*
X155824819Y-99500000D02*
X154824819Y-99500000D01*
X154824819Y-99500000D02*
X154967676Y-99404762D01*
X154967676Y-99404762D02*
X155062914Y-99309524D01*
X155062914Y-99309524D02*
X155110533Y-99214286D01*
D12*
%TO.C,BT1*%
X130450000Y-111490000D02*
X130450000Y-109040000D01*
X136000000Y-112040000D02*
X131000000Y-112040000D01*
X136550000Y-109040000D02*
X136550000Y-111490000D01*
X129980000Y-108340000D02*
G75*
G02*
X130449998Y-109040000I-286280J-700000D01*
G01*
X129980000Y-108340000D02*
G75*
G02*
X133500000Y-80790000I3520030J13550125D01*
G01*
X131000000Y-112040000D02*
G75*
G02*
X130450000Y-111490000I-1J549999D01*
G01*
X133500000Y-80790000D02*
G75*
G02*
X137020000Y-108340000I-31J-13999875D01*
G01*
X136550000Y-109040000D02*
G75*
G02*
X137020002Y-108340004I756270J0D01*
G01*
X136550000Y-111490000D02*
G75*
G02*
X136000000Y-112040000I-549999J-1D01*
G01*
%TO.C,D2*%
X145560253Y-71674916D02*
X145560253Y-74764916D01*
X140010253Y-73220378D02*
G75*
G02*
X145560253Y-71675086I2990000J462D01*
G01*
X145560253Y-74764746D02*
G75*
G02*
X140010253Y-73219454I-2560000J1544830D01*
G01*
X145500253Y-73219916D02*
G75*
G02*
X140500253Y-73219916I-2500000J0D01*
G01*
X140500253Y-73219916D02*
G75*
G02*
X145500253Y-73219916I2500000J0D01*
G01*
%TO.C,D1*%
X133878000Y-69407000D02*
X133878000Y-72497000D01*
X128328000Y-70952462D02*
G75*
G02*
X133878000Y-69407170I2990000J462D01*
G01*
X133878000Y-72496830D02*
G75*
G02*
X128328000Y-70951538I-2560000J1544830D01*
G01*
X133818000Y-70952000D02*
G75*
G02*
X128818000Y-70952000I-2500000J0D01*
G01*
X128818000Y-70952000D02*
G75*
G02*
X133818000Y-70952000I2500000J0D01*
G01*
%TO.C,SW1*%
X145320410Y-111954964D02*
X145320410Y-114674964D01*
X145320410Y-114674964D02*
X147330410Y-114674964D01*
X145580410Y-111954964D02*
X145330410Y-111954964D01*
X145580410Y-111954964D02*
X145580410Y-111414964D01*
X147150410Y-111954964D02*
X149110410Y-111954964D01*
X148930410Y-114674964D02*
X150940410Y-114674964D01*
X150940410Y-111954964D02*
X150680410Y-111954964D01*
X150940410Y-114664964D02*
X150940410Y-111964964D01*
%TO.C,R1*%
X151630000Y-95730000D02*
X151960000Y-95730000D01*
X151630000Y-102270000D02*
X151630000Y-95730000D01*
X151960000Y-102270000D02*
X151630000Y-102270000D01*
X154040000Y-102270000D02*
X154370000Y-102270000D01*
X154370000Y-95730000D02*
X154040000Y-95730000D01*
X154370000Y-102270000D02*
X154370000Y-95730000D01*
%TD*%
M02*
